<svg width="6853" height="6950" viewBox="0 0 6853 6950" fill="none" xmlns="http://www.w3.org/2000/svg">
<mask id="mask0_41_148" style="mask-type:luminance" maskUnits="userSpaceOnUse" x="0" y="0" width="6853" height="6950">
<path d="M6853 0H0V6950H6853V0Z" fill="white"/>
</mask>
<g mask="url(#mask0_41_148)">
<path d="M7078.29 620.718H3706.77V2705.61H7078.29V620.718Z" fill="#E3E2E6"/>
<path d="M4788.33 561.393H4742.65V2933.66H4788.33V561.393Z" fill="#F4F4F4"/>
<path d="M5975.03 561.393H5929.35V2933.66H5975.03V561.393Z" fill="#F4F4F4"/>
<path d="M3650.73 1631.71V1678.04L7488.41 1678.04V1631.71L3650.73 1631.71Z" fill="#F4F4F4"/>
<path d="M7133.1 2761.21V565.11L3651.96 565.11L3651.96 2761.21L7133.1 2761.21Z" stroke="#E3E2E6" stroke-miterlimit="10"/>
</g>
<path d="M3342.35 6422.56C4935.75 6422.56 6227.46 6375.89 6227.46 6318.31C6227.46 6260.74 4935.75 6214.06 3342.35 6214.06C1748.94 6214.06 457.232 6260.74 457.232 6318.31C457.232 6375.89 1748.94 6422.56 3342.35 6422.56Z" fill="#D4C2AE"/>
<path d="M1519.45 1891.16C1735.18 1891.16 1910.07 1713.8 1910.07 1495.01C1910.07 1276.23 1735.18 1098.86 1519.45 1098.86C1303.71 1098.86 1128.83 1276.23 1128.83 1495.01C1128.83 1713.8 1303.71 1891.16 1519.45 1891.16Z" fill="#908BA3"/>
<path d="M1519.45 1793.86C1682.19 1793.86 1814.13 1660.06 1814.13 1495.01C1814.13 1329.96 1682.19 1196.16 1519.45 1196.16C1356.7 1196.16 1224.77 1329.96 1224.77 1495.01C1224.77 1660.06 1356.7 1793.86 1519.45 1793.86Z" fill="#F4F4F4"/>
<path d="M1517.16 1274.94V1498.1C1519.45 1495.01 1652.89 1325.03 1652.89 1325.03" stroke="#000300" stroke-miterlimit="10" stroke-linecap="round" stroke-linejoin="round"/>
<path d="M3540.42 6040.51C3551.86 6079.89 3567.67 6124.16 3579.1 6163.55C3640.57 6202.01 3714.87 6243.63 3785.64 6278.03C3827.24 6298.26 3853.25 6341.35 3851.24 6388.09L3851.17 6389.57L3450.95 6391.48C3413.66 6349.33 3361.18 6288.79 3362.89 6294L3343.56 6394.78L3246.39 6396.52C3246.39 6396.52 3237.88 6078.93 3244.06 6046.82L3540.42 6040.51Z" fill="#331C12"/>
<path d="M2840.03 6040.51C2828.6 6079.89 2812.79 6124.16 2801.36 6163.55C2739.88 6202.01 2665.58 6243.63 2594.82 6278.03C2553.22 6298.26 2527.21 6341.35 2529.22 6388.09L2529.29 6389.57L2929.51 6391.48C2966.8 6349.33 3019.28 6288.79 3017.57 6294L3036.89 6394.78L3134.07 6396.52C3134.07 6396.52 3142.58 6078.93 3136.4 6046.82L2840.03 6040.51Z" fill="#291208"/>
<path d="M1367.94 3291.73C1337.43 3240.7 1357.98 3174.06 1387.99 3122.75C1418.01 3071.41 1457.77 3022.94 1466.51 2963.92C1481.81 2860.65 1397.53 2766.02 1398.14 2661.59C1398.64 2576.25 1454.86 2503.07 1484.5 2423.2C1465.68 2501.64 1495.5 2589.74 1527.68 2663.56C1559.87 2737.38 1598.82 2810.48 1606.86 2890.78C1611.73 2939.46 1604.74 2989.31 1586.68 3034.68C1552.26 3121.11 1481.33 3199.53 1488.61 3292.45" fill="#E3E2E6"/>
<path d="M1442.93 3745.66C1324.34 3745.66 1228.19 3648.17 1228.19 3527.89V3291.59H1657.64V3527.89C1657.64 3648.15 1561.51 3745.66 1442.93 3745.66Z" fill="#EDE0D4"/>
<path d="M1671.93 3552.21C1720.18 3552.21 1759.3 3512.54 1759.3 3463.6C1759.3 3414.66 1720.18 3374.99 1671.93 3374.99C1623.67 3374.99 1584.55 3414.66 1584.55 3463.6C1584.55 3512.54 1623.67 3552.21 1671.93 3552.21Z" stroke="#EBE0D9" stroke-width="3" stroke-miterlimit="10"/>
<path d="M1679.36 3746.81H1222.48C1211.17 3746.81 1201.92 3737.43 1201.92 3725.96C1201.92 3714.5 1211.17 3705.11 1222.48 3705.11H1679.34C1690.65 3705.11 1699.9 3714.5 1699.9 3725.96C1699.91 3737.43 1690.66 3746.81 1679.36 3746.81Z" fill="#3F2318"/>
<path d="M3788.6 4763.89H2500.29V3440.86C2500.29 3190.94 2700.07 2988.33 2946.5 2988.33H3342.39C3588.82 2988.33 3788.6 3190.94 3788.6 3440.86V4763.89Z" fill="#D4BFAC"/>
<path d="M2350.96 6270.08C2330.99 6266.72 2317.38 6247.73 2320.4 6227.44L2611.5 4666.73L2729.5 4686.61L2393.49 6239.61C2389.94 6259.86 2370.99 6273.45 2350.96 6270.08Z" fill="#3B1F17"/>
<path d="M3912.51 6270.08C3932.48 6266.72 3946.08 6247.73 3943.08 6227.44L3651.96 4666.72L3533.97 4686.59L3869.97 6239.6C3873.52 6259.87 3892.49 6273.45 3912.51 6270.08Z" fill="#3B1D13"/>
<path d="M3709.42 5196.61H2558.1V5280.36H3709.42V5196.61Z" fill="#391B16"/>
<path d="M3784.47 4950.94H2504.42C2415.85 4950.94 2343.38 4877.45 2343.38 4787.63C2343.38 4697.81 2415.85 4624.31 2504.42 4624.31H3784.47C3873.04 4624.31 3945.51 4697.8 3945.51 4787.63C3945.51 4877.45 3873.04 4950.94 3784.47 4950.94Z" fill="#D4BFAC"/>
<path d="M3250.14 2630.98H2999.54V2893.4H3250.14V2630.98Z" fill="#7C3747"/>
<path d="M3249.57 2690.04C3246.31 2714.04 3247.97 2737.99 3249.17 2762.19C3266.37 2775.82 3293.55 2773.4 3313 2763.35C3332.45 2753.31 3345.26 2731.29 3344.52 2709.18C3357.94 2723.93 3372.85 2725.16 3391.39 2732.17C3428.31 2746.15 3471.77 2721.91 3489.19 2686.05C3506.61 2650.19 3502.5 2606.95 3488.99 2569.39C3474.11 2528.02 3438.15 2495.18 3403.09 2469.21C3396.32 2491.38 3378.9 2514.64 3350.9 2516.51C3346.84 2516.79 3339.63 2515.04 3339.63 2515.04C3339.21 2576.89 3304.79 2645.99 3249.57 2690.04Z" fill="#000300"/>
<path d="M2999.91 2707.07C2999.91 2707.07 3001.12 2738.7 2999.91 2762.9C2982.71 2776.53 2923.61 2773.4 2904.16 2763.36C2884.72 2753.33 2871.91 2731.31 2872.64 2709.19C2859.22 2723.94 2844.31 2725.18 2825.78 2732.18C2788.84 2746.17 2745.39 2721.93 2727.97 2686.06C2710.55 2650.2 2714.67 2606.96 2728.18 2569.4C2743.05 2528.03 2779 2495.19 2814.07 2469.22C2820.83 2491.39 2838.27 2514.65 2866.25 2516.53C2870.31 2516.8 2887.39 2510.24 2887.39 2510.24C2887.83 2572.08 2944.69 2663.02 2999.91 2707.07Z" fill="#000300"/>
<path d="M2923.09 2441.15C2923.09 2482.78 2897.76 2516.53 2866.54 2516.53C2835.31 2516.53 2809.98 2482.78 2809.98 2441.15C2809.98 2399.52 2835.31 2365.77 2866.54 2365.77C2897.78 2365.77 2923.09 2399.52 2923.09 2441.15Z" fill="#8C4755"/>
<path d="M3407.46 2441.15C3407.46 2482.78 3382.13 2516.53 3350.9 2516.53C3319.66 2516.53 3294.35 2482.78 3294.35 2441.15C3294.35 2399.52 3319.68 2365.77 3350.9 2365.77C3382.13 2365.77 3407.46 2399.52 3407.46 2441.15Z" fill="#8C4755"/>
<path d="M3336.52 2411.89C3348.61 2398.44 3372.84 2399.63 3383.63 2414.17" stroke="#000300" stroke-miterlimit="10" stroke-linecap="round" stroke-linejoin="round"/>
<path d="M2831.71 2418.82C2838.5 2408.04 2850.45 2400.78 2863.03 2399.82C2875.6 2398.86 2888.51 2404.21 2896.8 2413.83" stroke="#000300" stroke-miterlimit="10" stroke-linecap="round" stroke-linejoin="round"/>
<path d="M3388.07 2499.78C3388.07 2510.19 3379.75 2518.62 3369.48 2518.62C3359.22 2518.62 3350.9 2510.19 3350.9 2499.78C3350.9 2489.36 3359.22 2480.93 3369.48 2480.93C3379.75 2480.93 3388.07 2489.36 3388.07 2499.78Z" fill="#EA9031"/>
<path d="M3378.49 2575.14C3397.14 2575.14 3412.26 2559.81 3412.26 2540.89C3412.26 2521.98 3397.14 2506.64 3378.49 2506.64C3359.84 2506.64 3344.72 2521.98 3344.72 2540.89C3344.72 2559.81 3359.84 2575.14 3378.49 2575.14Z" fill="#EA9031"/>
<path d="M2874.04 2508.14C2869.91 2517.68 2858.96 2522.02 2849.56 2517.83C2840.16 2513.65 2835.88 2502.54 2840.01 2493.01C2844.13 2483.47 2855.08 2479.13 2864.49 2483.32C2873.87 2487.5 2878.16 2498.61 2874.04 2508.14Z" fill="#EA9031"/>
<path d="M2879.92 2555.65C2872.44 2572.97 2852.51 2580.87 2835.43 2573.28C2818.34 2565.69 2810.57 2545.48 2818.05 2528.16C2825.53 2510.83 2845.46 2502.95 2862.54 2510.53C2879.63 2518.12 2887.42 2538.33 2879.92 2555.65Z" fill="#EA9031"/>
<path d="M3112.78 2737.08C2987.88 2737.08 2885.67 2633.44 2885.67 2506.75V2339.24C2885.67 2212.57 2987.87 2108.92 3112.78 2108.92C3237.69 2108.92 3339.89 2212.56 3339.89 2339.24V2506.75C3339.89 2633.42 3237.7 2737.08 3112.78 2737.08Z" fill="#8C4755"/>
<path d="M2945.56 2526.99C2969.5 2526.99 2988.91 2507.31 2988.91 2483.03C2988.91 2458.74 2969.5 2439.06 2945.56 2439.06C2921.61 2439.06 2902.2 2458.74 2902.2 2483.03C2902.2 2507.31 2921.61 2526.99 2945.56 2526.99Z" fill="#682738"/>
<path d="M3272.44 2526.99C3296.39 2526.99 3315.8 2507.31 3315.8 2483.03C3315.8 2458.74 3296.39 2439.06 3272.44 2439.06C3248.5 2439.06 3229.09 2458.74 3229.09 2483.03C3229.09 2507.31 3248.5 2526.99 3272.44 2526.99Z" fill="#682738"/>
<path d="M2977.83 2350.52C2992.97 2348.09 3008.32 2345.65 3023.54 2347.45C3038.76 2349.25 3054.08 2355.86 3063.17 2368.37C3071.77 2380.22 3073.75 2395.64 3074.37 2410.34C3075.02 2425.95 3074.49 2441.65 3072.15 2457.09C3070.34 2469.06 3067.43 2481.15 3069.24 2493.12C3071.06 2505.07 3079.19 2517.14 3091 2518.78" stroke="#000300" stroke-miterlimit="10" stroke-linecap="round" stroke-linejoin="round"/>
<path d="M2988.14 2417.65C2991.09 2426.37 3000.34 2432.42 3009.39 2431.55C3018.43 2430.68 3026.39 2422.98 3027.68 2413.86" stroke="#000300" stroke-miterlimit="10" stroke-linecap="round" stroke-linejoin="round"/>
<path d="M3164.32 2417.65C3167.26 2426.37 3176.52 2432.42 3185.56 2431.55C3194.61 2430.68 3202.57 2422.98 3203.86 2413.86" stroke="#000300" stroke-miterlimit="10" stroke-linecap="round" stroke-linejoin="round"/>
<path d="M3144.03 2354.63C3170.36 2338.02 3206.83 2340 3231.26 2359.37" stroke="#000300" stroke-miterlimit="10" stroke-linecap="round" stroke-linejoin="round"/>
<path d="M3061.93 2560.31C3091.37 2572.43 3126.71 2568.54 3152.91 2550.32" stroke="#000300" stroke-miterlimit="10" stroke-linecap="round" stroke-linejoin="round"/>
<path d="M3341.26 2367.87C3295.84 2368.56 3250.2 2331.07 3165.09 2228.98C3136.4 2194.57 3089.95 2150.64 3071.88 2109.48C3151.32 2094.97 3220.14 2112.45 3269.22 2162.06C3305.82 2199.04 3325.42 2242.51 3338.51 2293.19C3346.83 2325.36 3340.89 2334.92 3341.26 2367.87Z" fill="#000300"/>
<path d="M3106.25 2107.18C3110.92 2151.36 3070.99 2190.36 3045.01 2226.11C3003.07 2283.78 2943.49 2382.53 2886.99 2366.93C2878.25 2314.25 2884.3 2261.74 2909.8 2214.99C2935.29 2168.25 2976.04 2138.13 3024.7 2117.65C3044.79 2109.19 3084.62 2104.81 3106.25 2107.18Z" fill="#000300"/>
<path d="M3094.07 2148.26C3087.17 2203.68 3113.5 2262.02 3159.38 2292.92C3205.27 2323.82 3268.5 2325.8 3316.18 2297.85" fill="#000300"/>
<path d="M3105.88 2151.05C3112.78 2206.47 3086.45 2264.81 3040.57 2295.71C2994.68 2326.61 2931.45 2328.6 2883.77 2300.64" fill="#000300"/>
<path d="M2985.37 2782.14C2998.31 2854.46 2931.43 2950.09 2863.81 2976.56C2796.19 3003.03 2749.04 3003.98 2690.24 3046.96L2734.98 3554.31L2730.61 3998.96H3571.48L3560.86 3622.77L3585.98 3015.55C3527.18 2972.57 3451.01 2964.76 3383.39 2938.28C3315.77 2911.81 3258.01 2888.84 3261.84 2782.15" fill="#E0A048"/>
<path d="M3033.96 2780.76V2914.55" stroke="#000300" stroke-miterlimit="10" stroke-linecap="round" stroke-linejoin="round"/>
<path d="M3114.48 2780.76V2914.55" stroke="#000300" stroke-miterlimit="10" stroke-linecap="round" stroke-linejoin="round"/>
<path d="M3195.01 2780.76V2914.55" stroke="#000300" stroke-miterlimit="10" stroke-linecap="round" stroke-linejoin="round"/>
<path d="M2989.42 2780.76H3259.82" stroke="#000300" stroke-miterlimit="10" stroke-linecap="round" stroke-linejoin="round"/>
<path d="M2951.72 2915.14H3305.2" stroke="#000300" stroke-miterlimit="10" stroke-linecap="round" stroke-linejoin="round"/>
<path d="M3325.09 3484.91C3325.09 3484.91 3297.21 3472.35 3268.32 3450.37C3237.6 3366.09 3203.85 3297.71 3188.87 3209.11C3184.59 3183.81 3161.7 3165.67 3136.7 3169.66C3136.23 3169.73 3135.78 3169.81 3135.34 3169.9C3127.82 3265.47 3124.78 3361.4 3126.2 3457.26C3126.63 3485.33 3128.34 3567.44 3146.57 3588.56C3163.18 3607.83 3189.61 3614.57 3210.4 3629.05C3230.7 3643.19 3251.71 3648.69 3273.77 3659.76" fill="#8C4755"/>
<path d="M2939.7 3484.91C2939.7 3484.91 2967.58 3472.35 2996.47 3450.37C3027.19 3366.09 3060.95 3297.71 3075.93 3209.11C3080.2 3183.81 3103.09 3165.67 3128.09 3169.66C3128.56 3169.73 3129.01 3169.81 3129.46 3169.9C3136.99 3265.47 3140.03 3361.4 3138.61 3457.26C3138.18 3485.33 3136.47 3567.44 3118.24 3588.56C3101.63 3607.83 3075.2 3614.57 3054.41 3629.05C3034.11 3643.19 3013.1 3648.69 2991.03 3659.76" fill="#8C4755"/>
<path d="M3129.9 3569.59V3173.2" stroke="#000300" stroke-miterlimit="10" stroke-linecap="round" stroke-linejoin="round"/>
<path d="M3549.1 2993.91C3840.9 3144.67 3992.42 3432.24 4151.96 3725.35C4146.12 3792.78 4096.28 3854.93 4036.99 3886.01C3960.76 3925.97 3868.42 3912.2 3785.72 3889C3556.13 3824.6 3459.98 3830.98 3256.67 3705.11L3356.04 3395.84C3432.82 3450.77 3547.92 3475.76 3547.92 3475.76C3547.92 3475.76 3550.44 3143.33 3549.1 2993.91Z" fill="#E0A048"/>
<path d="M3249.77 3713.08C3277.19 3619.73 3304.6 3526.36 3332 3433.01C3480.47 3471.57 3637.49 3490.47 3781.5 3543.68" stroke="#000300" stroke-miterlimit="10" stroke-linecap="round" stroke-linejoin="round"/>
<path d="M3516.66 2984.77C3521.03 3034.22 3525.4 3083.66 3529.76 3133.1" stroke="#000300" stroke-miterlimit="10" stroke-linecap="round" stroke-linejoin="round"/>
<path d="M2767.65 3009.61C2461.06 3120.59 2313.93 3443.42 2154.39 3736.51C2160.23 3803.94 2210.07 3866.09 2269.36 3897.17C2345.59 3937.15 2437.93 3923.36 2520.63 3900.16C2750.22 3835.76 2790.1 3813.6 2993.42 3687.73C2993.42 3681.29 2938.63 3511.33 2918.03 3432.99C2913.54 3415.88 2894.21 3407.77 2879.07 3416.61C2823.24 3449.2 2800.18 3433.86 2727.55 3469.7C2747.59 3321.7 2766.31 3159.04 2767.65 3009.61Z" fill="#E0A048"/>
<path d="M3000.26 3713.08C2972.85 3619.73 2945.43 3526.36 2918.02 3433.01C2769.54 3471.57 2612.53 3490.47 2468.52 3543.68" stroke="#000300" stroke-miterlimit="10" stroke-linecap="round" stroke-linejoin="round"/>
<path d="M2746.13 3026.34C2746.13 3026.34 2738.35 3106.83 2733.98 3156.27" stroke="#000300" stroke-miterlimit="10" stroke-linecap="round" stroke-linejoin="round"/>
<path d="M4335.72 4155.99C4201.52 4095.27 3726.8 4086.96 3679.68 4075.84C3632.56 4064.72 3596.91 4038.45 3571.47 3996.72H2730.59C2721.29 4043.32 2685.54 4080.92 2644.33 4103.57C2603.11 4126.24 2556.48 4136.22 2510.6 4145.93C2409.05 4167.4 2267.36 4195.23 2165.82 4216.72C2378.96 4372.72 2641.91 4545.09 2888.39 4637.69C2939.54 4656.92 2996.36 4674.71 3047.47 4655.37C3194.29 4599.84 3359.51 4532.29 3513.42 4502.45C3573.15 4490.87 3634.46 4489.21 3694.12 4477.26C3831.16 4449.82 3951.63 4370.17 4068.23 4292.18C4137.61 4245.77 4266.35 4202.39 4335.72 4155.99Z" fill="#BB3E32"/>
<path d="M2711.87 4066.51H3601.91" stroke="#000300" stroke-miterlimit="10" stroke-linecap="round" stroke-linejoin="round"/>
<path d="M3168.27 4458.17C3506.41 4354.38 3844.53 4250.58 4182.67 4146.79C4232.69 4131.44 4292.24 4122.46 4340.43 4148.51C4404.85 4183.34 4437 4257.49 4423.12 4325.6C4406.01 4409.53 4330.37 4464.24 4254.44 4494.05C4228.11 4504.39 4201.01 4512.61 4173.97 4520.79C4024.07 4566.25 3874.15 4611.69 3724.25 4657.14C3573.59 4702.81 3419.44 4748.95 3262.36 4741.87" fill="#DD493B"/>
<path d="M3168.27 4458.17L3979.67 4208.99" stroke="#000300" stroke-miterlimit="10" stroke-linecap="round" stroke-linejoin="round"/>
<path d="M3320.62 4544.74C3376.46 4560.51 3452.09 4516.4 3507.74 4532.83C3539.44 4542.19 3563.34 4567.82 3589.56 4588.17C3630.23 4619.72 3679.43 4639.83 3730.29 4645.69C3767.99 4650.04 3795.27 4657.42 3818.97 4670.68C3856.64 4691.74 3845.01 4749.3 3802.21 4753.48C3604.38 4772.8 3269 4766.69 3269 4766.69" fill="#8F4656"/>
<path d="M3263.02 4792.86L3334.38 4503.57C3334.38 4503.57 2425.55 4230.62 2231.04 4215.08C1972.76 4194.44 1897.46 4547.93 2153.95 4617.61C2472.8 4704.22 3213.34 4795.44 3263.02 4792.86Z" fill="#DC483A"/>
<path d="M2310.97 4215.94C2310.97 4215.94 3192.84 4463.25 3328.65 4492.58L3263.01 4792.86" stroke="#000300" stroke-miterlimit="10" stroke-linecap="round" stroke-linejoin="round"/>
<path d="M3104.45 4764.48C3104.45 4764.48 3168.25 4458.17 3169.06 4467.06" stroke="#000300" stroke-miterlimit="10" stroke-linecap="round" stroke-linejoin="round"/>
<path d="M4684.64 3710.95H3829.9V3747.69H4684.64V3710.95Z" fill="#4E3A30"/>
<path d="M5209.05 3747.69H4284.1L4498.82 3083.26H5423.77L5209.05 3747.69Z" fill="#ECDDD6"/>
<path d="M4905.54 3477.14C4876.58 3494.1 4842 3488.37 4828.32 3464.32C4814.64 3440.29 4827.03 3407.06 4855.99 3390.1C4884.96 3373.14 4919.54 3378.87 4933.21 3402.91C4946.91 3426.95 4934.52 3460.18 4905.54 3477.14Z" fill="#F4F4F4"/>
<path d="M745.469 6277.03C720.25 6277.03 699.732 6256.46 699.431 6230.88L675.171 4099.46H823.826L791.494 6231.06C791.11 6256.56 770.606 6277.03 745.469 6277.03Z" fill="#371A13"/>
<path d="M1711.52 6277.03C1686.37 6277.03 1665.88 6256.56 1665.48 6231.06L1633.14 4099.46H1781.79L1757.55 6230.88C1757.26 6256.46 1736.74 6277.03 1711.52 6277.03Z" fill="#3F2318"/>
<path d="M5013.53 6277.03C4987.61 6277.03 4966.51 6255.92 4966.14 6229.63L4936.5 4099.44H5085.16L5060.93 6229.51C5060.64 6255.85 5039.5 6277.03 5013.53 6277.03Z" fill="#3F2318"/>
<path d="M5968.81 6277.03C5944.39 6277.03 5924.49 6257.14 5924.14 6232.37L5894.47 4099.46H6043.13L6013.48 6232.37C6013.14 6257.14 5993.24 6277.03 5968.81 6277.03Z" fill="#3A1C17"/>
<path d="M6200.05 3747.69H539.468V3904.64H6200.05V3747.69Z" fill="#D4C0AE"/>
<path d="M823.826 3789.57H675.171V4116.21H823.826V3789.57Z" fill="#D4C0AE"/>
<path d="M1781.81 3789.57H1633.15V4116.21H1781.81V3789.57Z" fill="#D4C0AE"/>
<path d="M5085.16 3789.57H4936.5V4116.21H5085.16V3789.57Z" fill="#D4C0AE"/>
<path d="M6043.14 3789.57H5894.48V4116.21H6043.14V3789.57Z" fill="#D4C0AE"/>
<path d="M5134.4 5790.11C5122.44 5672.28 5139.7 5537.52 5186.78 5429.12C5210.36 5374.78 5240.82 5323.74 5264.75 5269.56C5328.81 5124.46 5343.78 4962.77 5357.91 4804.44C5473.23 4997.09 5489.12 5243.41 5400.12 5449.93C5352.22 5561.07 5274.08 5670.16 5290.04 5790.36" fill="#003726"/>
<path d="M5024.04 5790.11C5036.01 5672.28 5018.75 5537.52 4971.67 5429.12C4948.09 5374.78 4917.63 5323.74 4893.7 5269.56C4829.64 5124.46 4814.67 4962.77 4800.54 4804.44C4685.22 4997.09 4669.33 5243.41 4758.33 5449.93C4806.21 5561.07 4884.37 5670.16 4868.41 5790.36" fill="#003726"/>
<path d="M5012.83 5795.13C4921.98 5615 4935.17 5399.33 4975.17 5201.12C5015.16 5002.9 5021.33 4942.21 5069.3 4674.64C5264.61 5126.39 5226.92 5403.24 5134.4 5798.8" fill="#00281C"/>
<path d="M5325.15 6500.13H4834.01L4727.83 5790.11H5426.79L5325.15 6500.13Z" fill="#ECDDD6"/>
<path d="M4760.92 5945.34H5381.32" stroke="#000300" stroke-miterlimit="10" stroke-linecap="round" stroke-linejoin="round"/>
<path d="M4779.19 6019.46H5380.1" stroke="#000300" stroke-miterlimit="10" stroke-linecap="round" stroke-linejoin="round"/>
<mask id="mask1_41_148" style="mask-type:luminance" maskUnits="userSpaceOnUse" x="0" y="0" width="6853" height="6950">
<path d="M6853 0H0V6950H6853V0Z" fill="white"/>
</mask>
<g mask="url(#mask1_41_148)">
<path d="M4932.05 1249.44V-163.367" stroke="#000300" stroke-miterlimit="10" stroke-linecap="round" stroke-linejoin="round"/>
<path d="M4964.34 1913.35C4969.49 1951.03 4990.81 1984.02 5007.79 2017.95C5024.77 2051.86 5037.87 2091.53 5025.51 2127.44C5014.16 2160.38 4980.5 2183.97 4946.1 2183.06H4897.88C4863.49 2183.97 4829.82 2160.38 4818.47 2127.44C4806.11 2091.52 4819.22 2051.86 4836.19 2017.95C4853.17 1984.03 4874.48 1951.03 4879.64 1913.35" stroke="#000300" stroke-miterlimit="10" stroke-linecap="round" stroke-linejoin="round"/>
<path d="M4882.87 2152.53C4863.59 2137.85 4850.81 2114.68 4848.61 2090.32" stroke="#000300" stroke-miterlimit="10" stroke-linecap="round" stroke-linejoin="round"/>
<path d="M5452.67 1914.34V1804.82C5230.14 1683.07 5050.24 1482.99 4951.14 1247.08H4906.98C4807.89 1483 4627.98 1683.07 4405.45 1804.82V1914.34H5452.67Z" fill="#F19524"/>
<path d="M4411.41 1807.76H5452.67" stroke="#000300" stroke-miterlimit="10" stroke-linecap="round" stroke-linejoin="round"/>
</g>
</svg>
